<mxfile host="app.diagrams.net" modified="2024-05-16T17:58:28.595Z" agent="Mozilla/5.0 (Windows NT 10.0; Win64; x64) AppleWebKit/537.36 (KHTML, like Gecko) Chrome/124.0.0.0 Safari/537.36" etag="VbD3O3DKvsfJfz4kQHUR" version="24.4.2" type="device">
  <diagram name="Page-1" id="q6DOjfeWonW5bEm2kUst">
    <mxGraphModel dx="2276" dy="2964" grid="1" gridSize="10" guides="1" tooltips="1" connect="1" arrows="1" fold="1" page="1" pageScale="1" pageWidth="850" pageHeight="1100" math="0" shadow="0">
      <root>
        <mxCell id="0" />
        <mxCell id="1" parent="0" />
        <mxCell id="icFl-86HTekZdITH0GXG-3" value="" style="swimlane;startSize=0;fillColor=#FFE6CC;strokeColor=#d79b00;" vertex="1" parent="1">
          <mxGeometry x="-50" y="-1160" width="840" height="1120" as="geometry" />
        </mxCell>
        <mxCell id="icFl-86HTekZdITH0GXG-8" value="" style="endArrow=none;html=1;rounded=0;entryX=0.998;entryY=0.061;entryDx=0;entryDy=0;entryPerimeter=0;fillColor=#ffe6cc;strokeColor=#d79b00;" edge="1" parent="icFl-86HTekZdITH0GXG-3" target="icFl-86HTekZdITH0GXG-3">
          <mxGeometry width="50" height="50" relative="1" as="geometry">
            <mxPoint y="60" as="sourcePoint" />
            <mxPoint x="50" y="10" as="targetPoint" />
          </mxGeometry>
        </mxCell>
        <mxCell id="icFl-86HTekZdITH0GXG-9" value="&lt;b&gt;&lt;font color=&quot;#cc6600&quot; style=&quot;font-size: 24px;&quot;&gt;USER&lt;/font&gt;&lt;/b&gt;" style="text;html=1;align=center;verticalAlign=middle;resizable=0;points=[];autosize=1;strokeColor=none;fillColor=none;" vertex="1" parent="icFl-86HTekZdITH0GXG-3">
          <mxGeometry x="150" y="10" width="90" height="40" as="geometry" />
        </mxCell>
        <mxCell id="icFl-86HTekZdITH0GXG-10" value="&lt;b&gt;&lt;font color=&quot;#cc6600&quot; style=&quot;font-size: 24px;&quot;&gt;SYSTEM&lt;/font&gt;&lt;/b&gt;" style="text;html=1;align=center;verticalAlign=middle;resizable=0;points=[];autosize=1;strokeColor=none;fillColor=none;" vertex="1" parent="icFl-86HTekZdITH0GXG-3">
          <mxGeometry x="570" y="10" width="120" height="40" as="geometry" />
        </mxCell>
        <mxCell id="icFl-86HTekZdITH0GXG-14" style="edgeStyle=none;rounded=0;orthogonalLoop=1;jettySize=auto;html=1;exitX=0.5;exitY=1;exitDx=0;exitDy=0;entryX=0.5;entryY=0;entryDx=0;entryDy=0;fillColor=#ffe6cc;strokeColor=#d79b00;" edge="1" parent="icFl-86HTekZdITH0GXG-3" source="icFl-86HTekZdITH0GXG-11" target="icFl-86HTekZdITH0GXG-13">
          <mxGeometry relative="1" as="geometry" />
        </mxCell>
        <mxCell id="icFl-86HTekZdITH0GXG-11" value="&lt;font color=&quot;#ffffff&quot;&gt;Start&lt;/font&gt;" style="ellipse;html=1;shape=startState;fillColor=#000000;strokeColor=#ff0000;" vertex="1" parent="icFl-86HTekZdITH0GXG-3">
          <mxGeometry x="175" y="110" width="40" height="40" as="geometry" />
        </mxCell>
        <mxCell id="icFl-86HTekZdITH0GXG-17" style="edgeStyle=orthogonalEdgeStyle;rounded=0;orthogonalLoop=1;jettySize=auto;html=1;exitX=1;exitY=0.5;exitDx=0;exitDy=0;entryX=0.5;entryY=0;entryDx=0;entryDy=0;fillColor=#ffe6cc;strokeColor=#d79b00;" edge="1" parent="icFl-86HTekZdITH0GXG-3" source="icFl-86HTekZdITH0GXG-13" target="icFl-86HTekZdITH0GXG-15">
          <mxGeometry relative="1" as="geometry" />
        </mxCell>
        <mxCell id="icFl-86HTekZdITH0GXG-13" value="Reviews Final Cost" style="rounded=1;whiteSpace=wrap;html=1;fillColor=none;strokeColor=#d79b00;" vertex="1" parent="icFl-86HTekZdITH0GXG-3">
          <mxGeometry x="60" y="210" width="270" height="60" as="geometry" />
        </mxCell>
        <mxCell id="icFl-86HTekZdITH0GXG-20" style="edgeStyle=orthogonalEdgeStyle;rounded=0;orthogonalLoop=1;jettySize=auto;html=1;exitX=1;exitY=0.5;exitDx=0;exitDy=0;entryX=0.5;entryY=0;entryDx=0;entryDy=0;fillColor=#ffe6cc;strokeColor=#d79b00;" edge="1" parent="icFl-86HTekZdITH0GXG-3" source="icFl-86HTekZdITH0GXG-15" target="icFl-86HTekZdITH0GXG-19">
          <mxGeometry relative="1" as="geometry" />
        </mxCell>
        <mxCell id="icFl-86HTekZdITH0GXG-21" style="edgeStyle=orthogonalEdgeStyle;rounded=0;orthogonalLoop=1;jettySize=auto;html=1;exitX=0;exitY=0.5;exitDx=0;exitDy=0;entryX=0.5;entryY=0;entryDx=0;entryDy=0;fillColor=#ffe6cc;strokeColor=#d79b00;" edge="1" parent="icFl-86HTekZdITH0GXG-3" source="icFl-86HTekZdITH0GXG-15" target="icFl-86HTekZdITH0GXG-18">
          <mxGeometry relative="1" as="geometry" />
        </mxCell>
        <mxCell id="icFl-86HTekZdITH0GXG-15" value="Account Balance &amp;gt; Payment Cost" style="rhombus;whiteSpace=wrap;html=1;fillColor=none;strokeColor=#d79b00;" vertex="1" parent="icFl-86HTekZdITH0GXG-3">
          <mxGeometry x="540" y="280" width="200" height="80" as="geometry" />
        </mxCell>
        <mxCell id="icFl-86HTekZdITH0GXG-37" style="edgeStyle=orthogonalEdgeStyle;rounded=0;orthogonalLoop=1;jettySize=auto;html=1;exitX=0.5;exitY=1;exitDx=0;exitDy=0;entryX=0.5;entryY=0;entryDx=0;entryDy=0;fillColor=#ffe6cc;strokeColor=#d79b00;" edge="1" parent="icFl-86HTekZdITH0GXG-3" source="icFl-86HTekZdITH0GXG-18" target="icFl-86HTekZdITH0GXG-36">
          <mxGeometry relative="1" as="geometry" />
        </mxCell>
        <mxCell id="icFl-86HTekZdITH0GXG-18" value="Payment Deducted From Account" style="rounded=1;whiteSpace=wrap;html=1;fillColor=none;strokeColor=#d79b00;" vertex="1" parent="icFl-86HTekZdITH0GXG-3">
          <mxGeometry x="450" y="400" width="120" height="60" as="geometry" />
        </mxCell>
        <mxCell id="icFl-86HTekZdITH0GXG-25" style="edgeStyle=orthogonalEdgeStyle;rounded=0;orthogonalLoop=1;jettySize=auto;html=1;exitX=0.5;exitY=1;exitDx=0;exitDy=0;entryX=1;entryY=0.5;entryDx=0;entryDy=0;fillColor=#ffe6cc;strokeColor=#d79b00;" edge="1" parent="icFl-86HTekZdITH0GXG-3" source="icFl-86HTekZdITH0GXG-19" target="icFl-86HTekZdITH0GXG-24">
          <mxGeometry relative="1" as="geometry" />
        </mxCell>
        <mxCell id="icFl-86HTekZdITH0GXG-19" value="Cancel Payment Process" style="rounded=1;whiteSpace=wrap;html=1;fillColor=none;strokeColor=#d79b00;" vertex="1" parent="icFl-86HTekZdITH0GXG-3">
          <mxGeometry x="710" y="400" width="120" height="60" as="geometry" />
        </mxCell>
        <mxCell id="icFl-86HTekZdITH0GXG-22" value="Yes" style="text;html=1;align=center;verticalAlign=middle;resizable=0;points=[];autosize=1;strokeColor=none;fillColor=none;" vertex="1" parent="icFl-86HTekZdITH0GXG-3">
          <mxGeometry x="510" y="290" width="40" height="30" as="geometry" />
        </mxCell>
        <mxCell id="icFl-86HTekZdITH0GXG-23" value="No" style="text;html=1;align=center;verticalAlign=middle;resizable=0;points=[];autosize=1;strokeColor=none;fillColor=none;" vertex="1" parent="icFl-86HTekZdITH0GXG-3">
          <mxGeometry x="730" y="290" width="40" height="30" as="geometry" />
        </mxCell>
        <mxCell id="icFl-86HTekZdITH0GXG-28" style="edgeStyle=orthogonalEdgeStyle;rounded=0;orthogonalLoop=1;jettySize=auto;html=1;exitX=0.5;exitY=1;exitDx=0;exitDy=0;entryX=0.5;entryY=0;entryDx=0;entryDy=0;fillColor=#ffe6cc;strokeColor=#d79b00;" edge="1" parent="icFl-86HTekZdITH0GXG-3" source="icFl-86HTekZdITH0GXG-24" target="icFl-86HTekZdITH0GXG-27">
          <mxGeometry relative="1" as="geometry" />
        </mxCell>
        <mxCell id="icFl-86HTekZdITH0GXG-24" value="Adjust Payment or Cancel Ride" style="rounded=1;whiteSpace=wrap;html=1;fillColor=none;strokeColor=#d79b00;" vertex="1" parent="icFl-86HTekZdITH0GXG-3">
          <mxGeometry x="135" y="520" width="120" height="60" as="geometry" />
        </mxCell>
        <mxCell id="icFl-86HTekZdITH0GXG-33" style="edgeStyle=orthogonalEdgeStyle;rounded=0;orthogonalLoop=1;jettySize=auto;html=1;exitX=1;exitY=0.5;exitDx=0;exitDy=0;entryX=0.5;entryY=0;entryDx=0;entryDy=0;fillColor=#ffe6cc;strokeColor=#d79b00;" edge="1" parent="icFl-86HTekZdITH0GXG-3" source="icFl-86HTekZdITH0GXG-27" target="icFl-86HTekZdITH0GXG-30">
          <mxGeometry relative="1" as="geometry" />
        </mxCell>
        <mxCell id="icFl-86HTekZdITH0GXG-35" style="edgeStyle=orthogonalEdgeStyle;rounded=0;orthogonalLoop=1;jettySize=auto;html=1;exitX=0;exitY=0.5;exitDx=0;exitDy=0;entryX=0;entryY=0.5;entryDx=0;entryDy=0;fillColor=#ffe6cc;strokeColor=#d79b00;" edge="1" parent="icFl-86HTekZdITH0GXG-3" source="icFl-86HTekZdITH0GXG-27" target="icFl-86HTekZdITH0GXG-18">
          <mxGeometry relative="1" as="geometry" />
        </mxCell>
        <mxCell id="icFl-86HTekZdITH0GXG-27" value="Payment Adjusted?" style="rhombus;whiteSpace=wrap;html=1;fillColor=none;strokeColor=#d79b00;" vertex="1" parent="icFl-86HTekZdITH0GXG-3">
          <mxGeometry x="600" y="650" width="80" height="80" as="geometry" />
        </mxCell>
        <mxCell id="icFl-86HTekZdITH0GXG-42" style="edgeStyle=orthogonalEdgeStyle;rounded=0;orthogonalLoop=1;jettySize=auto;html=1;exitX=0.5;exitY=1;exitDx=0;exitDy=0;entryX=1;entryY=0.5;entryDx=0;entryDy=0;fillColor=#ffe6cc;strokeColor=#d79b00;" edge="1" parent="icFl-86HTekZdITH0GXG-3" source="icFl-86HTekZdITH0GXG-30" target="icFl-86HTekZdITH0GXG-40">
          <mxGeometry relative="1" as="geometry" />
        </mxCell>
        <mxCell id="icFl-86HTekZdITH0GXG-30" value="Cancel Ride" style="rounded=1;whiteSpace=wrap;html=1;fillColor=none;strokeColor=#d79b00;" vertex="1" parent="icFl-86HTekZdITH0GXG-3">
          <mxGeometry x="255" y="770" width="120" height="60" as="geometry" />
        </mxCell>
        <mxCell id="icFl-86HTekZdITH0GXG-39" style="edgeStyle=orthogonalEdgeStyle;rounded=0;orthogonalLoop=1;jettySize=auto;html=1;exitX=0.5;exitY=1;exitDx=0;exitDy=0;entryX=1;entryY=0.5;entryDx=0;entryDy=0;fillColor=#ffe6cc;strokeColor=#d79b00;" edge="1" parent="icFl-86HTekZdITH0GXG-3" source="icFl-86HTekZdITH0GXG-36" target="icFl-86HTekZdITH0GXG-38">
          <mxGeometry relative="1" as="geometry" />
        </mxCell>
        <mxCell id="icFl-86HTekZdITH0GXG-36" value="Generate Digital Receipt" style="rounded=1;whiteSpace=wrap;html=1;fillColor=none;strokeColor=#d79b00;" vertex="1" parent="icFl-86HTekZdITH0GXG-3">
          <mxGeometry x="450" y="830" width="120" height="60" as="geometry" />
        </mxCell>
        <mxCell id="icFl-86HTekZdITH0GXG-32" value="Yes" style="text;html=1;align=center;verticalAlign=middle;resizable=0;points=[];autosize=1;strokeColor=none;fillColor=none;" vertex="1" parent="icFl-86HTekZdITH0GXG-3">
          <mxGeometry x="570" y="658" width="40" height="30" as="geometry" />
        </mxCell>
        <mxCell id="icFl-86HTekZdITH0GXG-34" value="No" style="text;html=1;align=center;verticalAlign=middle;resizable=0;points=[];autosize=1;strokeColor=none;fillColor=none;" vertex="1" parent="icFl-86HTekZdITH0GXG-3">
          <mxGeometry x="670" y="658" width="40" height="30" as="geometry" />
        </mxCell>
        <mxCell id="icFl-86HTekZdITH0GXG-44" style="edgeStyle=orthogonalEdgeStyle;rounded=0;orthogonalLoop=1;jettySize=auto;html=1;exitX=0;exitY=0.5;exitDx=0;exitDy=0;entryX=0;entryY=0.5;entryDx=0;entryDy=0;fillColor=#ffe6cc;strokeColor=#d79b00;" edge="1" parent="icFl-86HTekZdITH0GXG-3" source="icFl-86HTekZdITH0GXG-38" target="icFl-86HTekZdITH0GXG-40">
          <mxGeometry relative="1" as="geometry" />
        </mxCell>
        <mxCell id="icFl-86HTekZdITH0GXG-38" value="Review Receipt" style="rounded=1;whiteSpace=wrap;html=1;fillColor=none;strokeColor=#d79b00;" vertex="1" parent="icFl-86HTekZdITH0GXG-3">
          <mxGeometry x="135" y="880" width="120" height="60" as="geometry" />
        </mxCell>
        <mxCell id="icFl-86HTekZdITH0GXG-40" value="&lt;font color=&quot;#ffffff&quot;&gt;End&lt;/font&gt;" style="ellipse;html=1;shape=endState;fillColor=#000000;strokeColor=#ff0000;" vertex="1" parent="icFl-86HTekZdITH0GXG-3">
          <mxGeometry x="170" y="1010" width="50" height="50" as="geometry" />
        </mxCell>
        <mxCell id="icFl-86HTekZdITH0GXG-43" value="" style="endArrow=none;html=1;rounded=0;exitX=0.44;exitY=1;exitDx=0;exitDy=0;exitPerimeter=0;fillColor=#ffe6cc;strokeColor=#d79b00;" edge="1" parent="icFl-86HTekZdITH0GXG-3">
          <mxGeometry width="50" height="50" relative="1" as="geometry">
            <mxPoint x="409.9999999999999" y="1120" as="sourcePoint" />
            <mxPoint x="410.4" as="targetPoint" />
          </mxGeometry>
        </mxCell>
      </root>
    </mxGraphModel>
  </diagram>
</mxfile>
